<mxfile host="65bd71144e">
    <diagram id="RRljqXMv-kR20qJpmvu-" name="Page-1">
        <mxGraphModel dx="594" dy="402" grid="1" gridSize="10" guides="1" tooltips="1" connect="1" arrows="1" fold="1" page="1" pageScale="1" pageWidth="850" pageHeight="1100" math="0" shadow="0">
            <root>
                <mxCell id="0"/>
                <mxCell id="1" parent="0"/>
                <mxCell id="17" style="edgeStyle=orthogonalEdgeStyle;html=1;exitX=1;exitY=0.5;exitDx=0;exitDy=0;entryX=0;entryY=0.5;entryDx=0;entryDy=0;" edge="1" parent="1" source="11" target="15">
                    <mxGeometry relative="1" as="geometry"/>
                </mxCell>
                <mxCell id="11" value="" style="rounded=1;whiteSpace=wrap;html=1;" vertex="1" parent="1">
                    <mxGeometry x="300" y="460" width="120" height="80" as="geometry"/>
                </mxCell>
                <mxCell id="2" value="User" style="shape=umlActor;verticalLabelPosition=bottom;verticalAlign=top;html=1;" vertex="1" parent="1">
                    <mxGeometry x="150" y="470" width="30" height="60" as="geometry"/>
                </mxCell>
                <mxCell id="9" value="" style="group" vertex="1" connectable="0" parent="1">
                    <mxGeometry x="190" y="460" width="70" height="80" as="geometry"/>
                </mxCell>
                <mxCell id="8" value="" style="rounded=1;whiteSpace=wrap;html=1;" vertex="1" parent="9">
                    <mxGeometry width="70" height="80" as="geometry"/>
                </mxCell>
                <mxCell id="5" value="出発駅" style="ellipse;fontStyle=0" vertex="1" parent="9">
                    <mxGeometry x="10" y="10" width="50" height="25" as="geometry"/>
                </mxCell>
                <mxCell id="7" value="到着駅" style="ellipse;fontStyle=0" vertex="1" parent="9">
                    <mxGeometry x="10" y="45" width="50" height="25" as="geometry"/>
                </mxCell>
                <mxCell id="10" style="edgeStyle=none;html=1;entryX=0;entryY=0.5;entryDx=0;entryDy=0;" edge="1" parent="1" target="11">
                    <mxGeometry relative="1" as="geometry">
                        <mxPoint x="290" y="560" as="targetPoint"/>
                        <mxPoint x="260" y="500" as="sourcePoint"/>
                    </mxGeometry>
                </mxCell>
                <mxCell id="12" value="ダイクストラ法&lt;br&gt;演算" style="ellipse;whiteSpace=wrap;html=1;" vertex="1" parent="1">
                    <mxGeometry x="312.5" y="475" width="95" height="50" as="geometry"/>
                </mxCell>
                <mxCell id="15" value="経路情報" style="ellipse;fontStyle=0" vertex="1" parent="1">
                    <mxGeometry x="460" y="490" width="70" height="20" as="geometry"/>
                </mxCell>
                <mxCell id="18" value="User" style="shape=umlActor;verticalLabelPosition=bottom;verticalAlign=top;html=1;" vertex="1" parent="1">
                    <mxGeometry x="540" y="470" width="30" height="60" as="geometry"/>
                </mxCell>
            </root>
        </mxGraphModel>
    </diagram>
</mxfile>